<?xml version="1.0" encoding="UTF-8" standalone="no"?>
<!-- Created with Inkscape (http://www.inkscape.org/) -->

<svg
   version="1.1"
   id="svg1"
   width="1200"
   height="1200"
   viewBox="0 0 1200 1200"
   sodipodi:docname="ghostery.svg"
   inkscape:version="1.3 (0e150ed6c4, 2023-07-21)"
   xmlns:inkscape="http://www.inkscape.org/namespaces/inkscape"
   xmlns:sodipodi="http://sodipodi.sourceforge.net/DTD/sodipodi-0.dtd"
   xmlns="http://www.w3.org/2000/svg"
   xmlns:svg="http://www.w3.org/2000/svg">
  <defs
     id="defs1" />
  <sodipodi:namedview
     id="namedview1"
     pagecolor="#ffffff"
     bordercolor="#000000"
     borderopacity="0.25"
     inkscape:showpageshadow="2"
     inkscape:pageopacity="0.0"
     inkscape:pagecheckerboard="0"
     inkscape:deskcolor="#d1d1d1"
     inkscape:zoom="0.33875"
     inkscape:cx="892.98893"
     inkscape:cy="653.87454"
     inkscape:window-width="1920"
     inkscape:window-height="1009"
     inkscape:window-x="1912"
     inkscape:window-y="-8"
     inkscape:window-maximized="1"
     inkscape:current-layer="g1" />
  <g
     inkscape:groupmode="layer"
     inkscape:label="Image"
     id="g1">
    <path
       style="fill:#38b5e5;stroke:none"
       d="m 260,171 c -1.80716,7.64771 -9.07625,13.06226 -13.27545,19.42517 -11.88492,18.00885 -23.53324,36.50067 -32.97455,55.9884 C 190.84576,293.69 178.38336,343.36914 171.20911,395 c -1.54776,11.13879 0.52171,22.77393 -0.26313,33.98535 C 168.86139,458.76404 169,488.89056 169,519 v 170 c 0,28.09546 1.96318,56.98639 -0.0903,85 -1.91849,26.17242 -7.58597,52.18085 -12.16899,77.91052 -11.32524,63.58124 -41.15341,120.27722 -61.141977,180.95908 -6.802201,20.6503 -21.749962,52.844 -10.567124,74.1049 10.450211,19.868 42.668861,9.8011 59.249991,4.7307 37.3802,-11.4305 75.75542,-25.667 114.71837,-28.7986 15.01205,-1.2065 29.30914,-2.3556 44.00308,2.8927 21.25666,7.5925 29.4469,25.4779 40.07562,43.5502 14.26563,24.2563 32.02552,53.4869 60.34568,62.9221 24.76196,8.2496 51.03421,-0.6919 73.82177,-10.5764 24.64011,-10.6881 49.74653,-21.1246 75.33027,-29.4043 13.21911,-4.2781 27.34668,-10.9259 41.42358,-11.2763 23.47296,-0.5841 45.78387,7.8683 67.42053,16.2547 14.969,5.802 30.89832,10.5444 45.33332,17.4807 27.50323,13.2158 58.17486,26.0674 88.96063,17.7909 55.86535,-15.0189 54.45117,-96.0773 109.45526,-109.0857 16.89172,-3.9949 34.29852,-1.7422 51,1.2855 33.70129,6.1095 66.70579,16.9215 99.54869,26.9645 16.076,4.9159 46.6721,14.5741 58.1782,-2.8888 6.5527,-9.9452 4.4176,-23.0039 2.3588,-33.9059 -4.7478,-25.141 -13.8843,-49.2704 -23.75,-72.821 -34.7921,-83.05263 -57.1855,-167.61007 -63.4513,-257.10415 C 1027.0225,715.96765 1029,686.09619 1029,657 V 482 c 0,-44.46649 2.4666,-89.58594 -7.5949,-133 C 988.49017,206.97577 892.4826,90.543579 756.57642,35.798584 716.09875,19.493652 672.73401,12.289917 629.91052,7.1289062 582.71429,1.440918 532.55853,10.877197 487,21.458374 426.83838,35.431274 366.44336,69.500366 320,109.74854 304.09982,123.52771 290.51724,138.88147 275.86264,153.85962 270.66815,159.16882 266.88126,167.86621 260,171"
       id="path79" />
    <path
       style="fill:#ffffff;stroke:none"
       d="m 388,562 c 14.86093,17.21991 30.06061,37.0531 48.47531,50.75079 26.84876,19.97132 55.74674,37.22705 87.80631,47.5401 61.77905,19.87329 129.56225,12.71302 187.71838,-14.78625 20.9007,-9.88294 42.76282,-24.18891 59.42133,-40.22839 7.36975,-7.09589 14.49853,-14.45032 21.71911,-21.69678 3.35291,-3.36499 6.28223,-8.08692 10.85956,-9.57947 0.53455,-5.03076 4.70868,-9.53986 9,-12 -22.04572,93.81689 -92.73254,195.11914 -194.96063,207.12885 -48.38306,5.68402 -97.94898,-11.53254 -134.32486,-44.47297 C 475.85538,717.539 458.77011,707.14075 457,696 447.94519,693.45825 440.21115,677.75195 434.90894,670.34949 417.82654,646.50049 404.71057,618.9826 395.30786,591.27081 392.79337,583.86005 385.87646,569.64563 388,562 Z"
       id="path84" />
    <path
       style="fill:#ffffff;stroke:none"
       d="m 726,241.29016 c 35.44482,-4.77496 62.79828,27.61786 75.44446,56.67127 21.23938,48.79559 19.7113,107.88159 -2.07947,156.11883 -10.59467,23.45288 -32.4024,48.53064 -59.45447,51.79089 -36.51562,4.40076 -58.7337,-24.81121 -74.3349,-52.95141 C 639.3576,405.6297 643.17865,333.97717 668.92902,287.53625 681.04626,265.68274 699.83734,244.81464 726,241.29016"
       id="path83" />
    <path
       style="fill:#ffffff;stroke:none"
       d="m 530,464 h -3 c -1.11395,8.16528 -8.74939,15.09503 -14.21527,20.79553 -24.538,25.59131 -62.39844,28.51941 -88.40509,2.82483 -41.7197,-41.21899 -48.5322,-110.88885 -34.92362,-165.33484 10.94877,-43.80444 50.70264,-98.95312 102.13041,-75.58569 7.55841,3.43433 13.87445,8.60541 19.75463,14.33954 7.29053,7.10943 13.64057,15.14715 18.42286,24.15741 24.14727,45.49566 24.49505,94.41919 13.9776,143.63421 C 541.10333,441.17603 532.71899,451.84808 530,464"
       id="path82" />
  </g>
</svg>
