<?xml version="1.0" encoding="UTF-8" standalone="no"?>
<!-- Created with Inkscape (http://www.inkscape.org/) -->

<svg
   width="67.733337mm"
   height="67.733337mm"
   viewBox="0 0 67.733337 67.733337"
   version="1.1"
   id="svg8"
   inkscape:version="1.3 (0e150ed6c4, 2023-07-21)"
   sodipodi:docname="LibroWolfOut.svg"
   xmlns:inkscape="http://www.inkscape.org/namespaces/inkscape"
   xmlns:sodipodi="http://sodipodi.sourceforge.net/DTD/sodipodi-0.dtd"
   xmlns="http://www.w3.org/2000/svg"
   xmlns:svg="http://www.w3.org/2000/svg"
   xmlns:rdf="http://www.w3.org/1999/02/22-rdf-syntax-ns#"
   xmlns:cc="http://creativecommons.org/ns#"
   xmlns:dc="http://purl.org/dc/elements/1.1/">
  <defs
     id="defs2" />
  <sodipodi:namedview
     id="base"
     pagecolor="#ffffff"
     bordercolor="#666666"
     borderopacity="1.0"
     inkscape:pageopacity="0.0"
     inkscape:pageshadow="2"
     inkscape:zoom="2.8"
     inkscape:cx="69.642857"
     inkscape:cy="128.39286"
     inkscape:document-units="mm"
     inkscape:current-layer="layer1"
     showgrid="false"
     inkscape:window-width="1920"
     inkscape:window-height="1009"
     inkscape:window-x="1912"
     inkscape:window-y="-8"
     inkscape:window-maximized="1"
     inkscape:showpageshadow="false"
     units="px"
     fit-margin-top="0"
     fit-margin-left="0"
     fit-margin-right="0"
     fit-margin-bottom="0"
     inkscape:pagecheckerboard="0"
     inkscape:deskcolor="#d1d1d1" />
  <metadata
     id="metadata5">
    <rdf:RDF>
      <cc:Work
         rdf:about="">
        <dc:format>image/svg+xml</dc:format>
        <dc:type
           rdf:resource="http://purl.org/dc/dcmitype/StillImage" />
      </cc:Work>
    </rdf:RDF>
  </metadata>
  <g
     inkscape:label="Layer 1"
     inkscape:groupmode="layer"
     id="layer1"
     transform="translate(-42.106554,-153.8982)">
    <path
       id="path847"
       style="display:inline;fill:currentColor;stroke-width:0.164759"
       d="m 76.127807,154.10587 c -5.521495,0 -9.869607,0.95156 -14.619779,3.19987 -10.212584,4.83367 -17.324182,14.51373 -18.954399,25.79922 -0.326033,2.25753 -0.327852,6.79901 -0.0036,9.26904 0.75736,5.76966 3.052845,11.22833 6.744808,16.03834 1.318417,1.71767 4.338829,4.75345 5.948474,5.9788 4.935193,3.75699 10.590447,6.11069 16.502868,6.86833 1.903722,0.24397 6.801189,0.21026 8.874394,-0.0612 6.000206,-0.7855 12.04722,-3.41323 16.791223,-7.29684 1.729476,-1.4158 4.335764,-4.15344 5.669934,-5.95555 4.48966,-6.06441 6.65127,-12.58328 6.65127,-20.05846 0,-5.67842 -0.9734,-9.98183 -3.37705,-14.92916 -1.77697,-3.65744 -3.85231,-6.48591 -6.94686,-9.46762 -6.423749,-6.18949 -14.350616,-9.38482 -23.281266,-9.38482 z m -0.111104,5.09849 c 4.902385,0.005 8.635223,0.8858 12.990938,3.06677 2.870558,1.43733 5.101626,3.09375 7.552511,5.60655 3.931188,4.03047 6.426268,8.74036 7.584558,14.31665 0.43724,2.105 0.60369,6.95457 0.31728,9.24686 -0.59464,4.75929 -2.61549,9.68868 -5.585701,13.62356 -1.095089,1.45078 -3.707192,4.08394 -5.218286,5.26079 -2.84182,2.21329 -5.785181,3.74116 -9.397359,4.87829 -1.239517,0.39021 -1.447794,0.39456 -1.336353,0.0276 0.253065,-0.83333 0.431494,-1.95839 0.492994,-3.11276 0.09745,-1.82884 1.256143,-4.72939 2.417423,-6.05022 1.021451,-1.16182 1.217024,-2.08765 1.237134,-5.86085 0.01662,-3.12356 0.05018,-3.48856 0.452169,-4.8891 0.684285,-2.38409 1.393678,-4.06743 2.22157,-5.27434 0.420739,-0.61335 1.092789,-1.70765 1.493448,-2.4321 0.400652,-0.72447 0.982224,-1.7006 1.292428,-2.1686 0.810374,-1.22263 2.541851,-2.91088 3.397209,-3.31242 0.955924,-0.44873 2.009489,-1.65697 2.357995,-2.70479 0.358236,-1.0771 0.248442,-2.77694 -0.219625,-3.40063 -0.27583,-0.36744 -0.450825,-0.43285 -1.157552,-0.43285 -0.647263,0 -0.924605,-0.0866 -1.246435,-0.38794 -0.442675,-0.41461 -0.76843,-0.35877 -0.76843,0.13201 0,0.38495 -0.589531,1.12041 -0.761193,0.94958 -0.0715,-0.0712 0.0041,-0.47884 0.167949,-0.90574 0.600431,-1.56459 0.796611,-2.56391 0.700732,-3.57485 -0.158078,-1.66681 -1.198687,-4.21683 -1.765267,-4.32582 -0.136243,-0.0263 -0.876243,0.4805 -1.644344,1.12595 -4.005505,3.36589 -7.049451,5.67433 -9.168949,6.95381 -1.011412,0.61061 -1.014495,0.61104 -2.720248,0.57408 -2.019571,-0.0437 -2.304438,0.0621 -5.673038,2.10151 -1.166728,0.70638 -2.481306,1.42053 -2.921269,1.58748 -0.442189,0.1678 -1.846178,0.41104 -3.139343,0.54378 -2.655892,0.27258 -3.366739,0.43751 -4.360458,1.01072 -0.982716,0.56688 -1.229684,0.98875 -1.020609,1.74494 0.204713,0.74041 1.293248,2.19668 2.601391,3.4807 l 0.984436,0.96634 -0.761193,1.17412 c -0.418698,0.64556 -1.048382,1.83808 -1.399398,2.65015 -0.697612,1.61395 -0.888833,1.91794 -2.279448,3.62732 -1.204688,1.48084 -2.537734,3.61311 -3.784782,6.05292 -1.066421,2.08646 -1.577059,2.62732 -3.534668,3.74583 -1.094342,0.62527 -1.055436,0.6464 -2.295983,-1.22119 -2.271751,-3.42002 -3.838707,-7.49758 -4.466912,-11.62324 -0.313899,-2.06147 -0.307723,-6.33688 0.0124,-8.48989 0.488245,-3.2837 1.739788,-6.87727 3.449402,-9.90533 2.321302,-4.11145 6.559377,-8.34903 10.659298,-10.65743 4.503682,-2.53574 9.054017,-3.72345 14.243575,-3.71821 z m 4.138248,19.83988 -1.22163,1.63781 -1.966289,0.28894 1.222148,-1.63836 z" />
  </g>
</svg>
