<?xml version="1.0" encoding="UTF-8" standalone="no"?>
<!-- Created with Inkscape (http://www.inkscape.org/) -->

<svg
   version="1.1"
   id="svg1"
   width="476"
   height="480"
   viewBox="0 0 476 480"
   sodipodi:docname="logo.svg"
   inkscape:version="1.3 (0e150ed6c4, 2023-07-21)"
   xmlns:inkscape="http://www.inkscape.org/namespaces/inkscape"
   xmlns:sodipodi="http://sodipodi.sourceforge.net/DTD/sodipodi-0.dtd"
   xmlns="http://www.w3.org/2000/svg"
   xmlns:svg="http://www.w3.org/2000/svg">
  <defs
     id="defs1" />
  <sodipodi:namedview
     id="namedview1"
     pagecolor="#ffffff"
     bordercolor="#000000"
     borderopacity="0.25"
     inkscape:showpageshadow="2"
     inkscape:pageopacity="0.0"
     inkscape:pagecheckerboard="0"
     inkscape:deskcolor="#d1d1d1"
     inkscape:zoom="1"
     inkscape:cx="24.5"
     inkscape:cy="269.5"
     inkscape:window-width="1920"
     inkscape:window-height="1009"
     inkscape:window-x="1912"
     inkscape:window-y="-8"
     inkscape:window-maximized="1"
     inkscape:current-layer="g1" />
  <g
     inkscape:groupmode="layer"
     inkscape:label="Image"
     id="g1">
    <path
       style="fill:white;stroke:none"
       d="m 235,10 c 3.61382,18.385651 3.72942,41.415375 -10.21826,55.867065 C 213.9071,77.134674 196.96765,80.746887 183,86.718018 165.7267,94.102325 150.71103,104.41254 138.68677,119 c -13.86535,16.82098 -20.80905,38.82626 -9.7892,59 2.82178,5.16574 16.06518,15.01804 15.6407,20.43472 -0.37003,4.72162 -9.49828,-3.75552 -10.36189,-4.61816 C 127.13759,186.78561 122.17715,178.36719 119,169 c -42.535095,10.10446 -73.060001,54.53668 -59.622974,97 4.100425,12.95807 10.700771,24.91193 18.501705,36 1.343315,1.90936 7.997795,9.02136 5.664299,11.57336 -2.05465,2.24701 -6.187691,-3.41394 -7.137924,-4.61319 C 70.960243,302.0885 66.530525,294.48199 62,287 20.25338,311.70685 -1.8211861,356.92426 29.217407,399 35.446995,407.44479 42.633881,414.70605 51,421.0368 93.123398,452.91223 151.41164,461.99976 203,462 c -6.15482,-10.10791 -12.25536,-19.20807 -14.75262,-31 -0.35543,-1.67828 -2.54334,-13.63162 2.24017,-11.87823 2.58781,0.94854 2.53984,5.70574 2.89993,7.88052 1.14325,6.90445 3.26984,13.83926 6.63204,19.99771 11.19427,20.50433 34.57351,28.87408 56.98048,25.47711 20.02448,-3.03576 31.34131,-19.94653 35.53333,-38.47711 0.53979,-2.38611 1.4862,-19.21463 5.61804,-17.67722 3.28546,1.22251 1.91052,8.19816 1.6127,10.67737 C 298.42731,438.12836 293.50571,447.55847 290,458 c 51.64734,-10.98993 106.26324,-14.85129 148.99951,-49.84894 34.10001,-27.92523 37.06162,-81.30328 1.99152,-110.18793 -5.95035,-4.90084 -23.17551,-18.19555 -31.52979,-14.29083 -6.51703,3.04602 -11.38818,13.07642 -16.57168,18.07495 -5.16959,4.98511 -10.87348,9.94532 -16.84763,13.94623 -1.31973,0.88382 -5.22964,3.72028 -6.68216,1.57715 -2.19958,-3.24545 8.75714,-9.79199 10.64038,-11.30905 11.89484,-9.582 22.90341,-21.5347 28.50962,-35.96158 C 425.09753,227.31352 384.28098,181.64825 349,163 c -2.81992,5.61432 -5.11609,11.69562 -8.79816,16.8291 -0.8038,1.12067 -3.2511,4.44611 -4.95349,2.74426 -2.82779,-2.82681 4.66056,-13.70553 5.95999,-16.57336 6.89566,-15.21854 9.67899,-32.36633 7.27536,-49 C 342.59811,76.270294 305.97833,47.733276 273,28.001099 261.36331,21.038422 248.27432,13.21283 235,10 m -32,132.74423 c 9.69102,-0.94812 16.70657,9.86786 20.56602,17.25559 0.87624,1.67727 4.90909,9.65933 0.88353,10.32461 -2.67337,0.44184 -4.62745,-3.54886 -5.66708,-5.36044 -3.03505,-5.2887 -6.43457,-12.91327 -12.79045,-14.91144 -11.95323,-3.75784 -11.91603,19.2785 -19.68593,18.07462 -3.86699,-0.59915 -0.8743,-7.30942 -0.0663,-9.12882 3.01898,-6.798 8.58052,-15.45386 16.76022,-16.25412 m 66.00003,2.09085 c 8.91898,-0.2359 15.03458,8.13959 18.87351,15.16474 0.85168,1.55853 5.55935,10.66696 0.84445,10.66696 -7.61145,0 -8.70963,-18.18228 -18.7218,-18.86316 -7.06244,-0.48029 -12.09671,8.01135 -15.17768,13.16183 -1.06903,1.78711 -3.28883,6.55759 -6.12642,5.60791 -3.51494,-1.17636 0.23476,-7.8265 1.16045,-9.57388 3.81778,-7.20669 10.13708,-15.92609 19.14749,-16.1644 M 269,222.42212 c 19.18491,-1.94403 30.53644,14.61525 33.2229,31.57788 0.50684,3.2002 3.15781,22.66675 -2.14474,22.66675 -4.74366,0 -3.0478,-14.70468 -3.34659,-17.66675 C 295.37891,245.59097 288.26086,229.76976 273,228.54007 253.13136,226.93909 251.14781,250.8894 252.94302,265 c 0.25858,2.03241 3.69654,16.20325 -1.59382,14.57333 C 246.77856,278.16516 246.74577,265.80811 246.35132,262 244.63155,245.3972 249.28767,224.41959 269,222.42212 m -69,4.03483 c 19.11371,-2.28251 28.60889,16.19909 29.82529,32.54305 0.23393,3.14319 2.10092,20.66675 -2.90345,20.66675 -4.39645,0 -2.90504,-12.05899 -2.93083,-14.66675 -0.11607,-11.7386 -3.23306,-27.3721 -15.9926,-31.5793 -19.92744,-6.57068 -23.50047,18.05894 -21.99446,31.5793 0.26619,2.38977 3.62497,14.66675 -0.97186,14.66675 -5.05373,0 -5.21553,-14.34406 -5.57646,-17.66675 -1.62004,-14.91379 3.15863,-33.46687 20.54437,-35.54305 m 40,83.001 C 253.86118,307.83563 263.01813,320.07333 266.52496,332 271.47134,348.8226 270,366.67419 270,384 c 0,10.37772 1.31064,21.79285 -0.76694,32 C 267.00732,426.935 259.66125,436.51978 248,437.78125 206.2903,442.29321 214,390.38788 214,364 c 0,-10.04779 -0.53319,-20.17349 1.97708,-30 C 219.04727,321.98166 226.9129,310.98962 240,309.45795 M 220,351 l 44,-3 c -2.19998,-9.74249 -3.3374,-21.41983 -11.26038,-28.52313 C 232.57529,301.39862 220.13124,336.255 220,351 m 34.01277,41.91571 c -8.45579,1.47894 -8.28662,10.34442 -7.88071,17.082 0.10759,1.78586 1.44683,6.96695 -0.91761,7.88052 -3.59984,1.39094 -4.88661,-5.8298 -5.07059,-7.88052 -0.79709,-8.88486 -1.05402,-22.59216 -14,-13.55124 -19.09891,13.33786 5.02254,38.9574 22.85562,35.00104 11.76437,-2.60996 14.9296,-14.98044 14.98932,-25.44736 0.0366,-6.42291 -1.4342,-14.5784 -9.97603,-13.08444 z"
       id="path9075" />
  </g>
</svg>
